<mxfile host="Electron" agent="Mozilla/5.0 (Macintosh; Intel Mac OS X 10_15_7) AppleWebKit/537.36 (KHTML, like Gecko) draw.io/24.7.5 Chrome/126.0.6478.183 Electron/31.3.0 Safari/537.36" version="24.7.5">
  <diagram name="Page-1" id="u3EpvIthAehM37_VrRFz">
    <mxGraphModel dx="1272" dy="899" grid="1" gridSize="10" guides="1" tooltips="1" connect="1" arrows="1" fold="1" page="1" pageScale="1" pageWidth="1600" pageHeight="900" math="0" shadow="0">
      <root>
        <mxCell id="0" />
        <mxCell id="1" parent="0" />
        <mxCell id="2afv2n0QNjhBNBNMFZkI-1" value="&lt;b&gt;win-dc01&lt;br&gt;&lt;/b&gt;&lt;br&gt;&lt;b&gt;Active Directory &lt;br&gt;Domain Controller&lt;/b&gt;" style="sketch=0;pointerEvents=1;shadow=0;dashed=0;html=1;strokeColor=none;fillColor=#505050;labelPosition=center;verticalLabelPosition=bottom;verticalAlign=top;outlineConnect=0;align=center;shape=mxgraph.office.servers.windows_server;hachureGap=4;jiggle=2;curveFitting=1;fontFamily=Architects Daughter;fontSource=https%3A%2F%2Ffonts.googleapis.com%2Fcss%3Ffamily%3DArchitects%2BDaughter;" parent="1" vertex="1">
          <mxGeometry x="120" y="80" width="52" height="55" as="geometry" />
        </mxCell>
        <mxCell id="PuFVsdW1NZlVg10Oj2nZ-7" value="win-proxy01&lt;br&gt;&lt;br&gt;Microsoft Entra &lt;br&gt;private network connector" style="sketch=0;pointerEvents=1;shadow=0;dashed=0;html=1;strokeColor=none;fillColor=#505050;labelPosition=center;verticalLabelPosition=bottom;verticalAlign=top;outlineConnect=0;align=center;shape=mxgraph.office.servers.windows_server;hachureGap=4;jiggle=2;curveFitting=1;fontFamily=Architects Daughter;fontSource=https%3A%2F%2Ffonts.googleapis.com%2Fcss%3Ffamily%3DArchitects%2BDaughter;" vertex="1" parent="1">
          <mxGeometry x="120" y="280" width="52" height="55" as="geometry" />
        </mxCell>
        <mxCell id="PuFVsdW1NZlVg10Oj2nZ-8" value="&lt;div&gt;win-proxy01&lt;/div&gt;&lt;div&gt;&lt;br&gt;&lt;/div&gt;On-Premises &lt;br&gt;Data Gateway" style="sketch=0;pointerEvents=1;shadow=0;dashed=0;html=1;strokeColor=none;fillColor=#505050;labelPosition=center;verticalLabelPosition=bottom;verticalAlign=top;outlineConnect=0;align=center;shape=mxgraph.office.servers.windows_server;hachureGap=4;jiggle=2;curveFitting=1;fontFamily=Architects Daughter;fontSource=https%3A%2F%2Ffonts.googleapis.com%2Fcss%3Ffamily%3DArchitects%2BDaughter;" vertex="1" parent="1">
          <mxGeometry x="280" y="280" width="52" height="55" as="geometry" />
        </mxCell>
        <mxCell id="PuFVsdW1NZlVg10Oj2nZ-9" value="win-mgm01&lt;br&gt;&lt;br&gt;Management Server" style="sketch=0;pointerEvents=1;shadow=0;dashed=0;html=1;strokeColor=none;fillColor=#505050;labelPosition=center;verticalLabelPosition=bottom;verticalAlign=top;outlineConnect=0;align=center;shape=mxgraph.office.servers.windows_server;hachureGap=4;jiggle=2;curveFitting=1;fontFamily=Architects Daughter;fontSource=https%3A%2F%2Ffonts.googleapis.com%2Fcss%3Ffamily%3DArchitects%2BDaughter;" vertex="1" parent="1">
          <mxGeometry x="440" y="80" width="52" height="55" as="geometry" />
        </mxCell>
        <mxCell id="PuFVsdW1NZlVg10Oj2nZ-12" value="&lt;b&gt;win-sync01&lt;br&gt;&lt;/b&gt;&lt;div&gt;&lt;b&gt;&lt;br&gt;&lt;/b&gt;Microsoft Entra &lt;br&gt;Connect&lt;br&gt;&lt;/div&gt;" style="sketch=0;pointerEvents=1;shadow=0;dashed=0;html=1;strokeColor=none;fillColor=#505050;labelPosition=center;verticalLabelPosition=bottom;verticalAlign=top;outlineConnect=0;align=center;shape=mxgraph.office.servers.windows_server;hachureGap=4;jiggle=2;curveFitting=1;fontFamily=Architects Daughter;fontSource=https%3A%2F%2Ffonts.googleapis.com%2Fcss%3Ffamily%3DArchitects%2BDaughter;" vertex="1" parent="1">
          <mxGeometry x="280" y="80" width="52" height="55" as="geometry" />
        </mxCell>
        <mxCell id="PuFVsdW1NZlVg10Oj2nZ-13" value="&lt;div&gt;win-IIS01&lt;/div&gt;&lt;div&gt;&lt;br&gt;&lt;/div&gt;IIS WebServer" style="sketch=0;pointerEvents=1;shadow=0;dashed=0;html=1;strokeColor=none;fillColor=#505050;labelPosition=center;verticalLabelPosition=bottom;verticalAlign=top;outlineConnect=0;align=center;shape=mxgraph.office.servers.windows_server;hachureGap=4;jiggle=2;curveFitting=1;fontFamily=Architects Daughter;fontSource=https%3A%2F%2Ffonts.googleapis.com%2Fcss%3Ffamily%3DArchitects%2BDaughter;" vertex="1" parent="1">
          <mxGeometry x="440" y="280" width="52" height="55" as="geometry" />
        </mxCell>
        <mxCell id="PuFVsdW1NZlVg10Oj2nZ-14" value="&lt;div&gt;win-SQL01&lt;br&gt;&lt;br&gt;&lt;/div&gt;Sql Server" style="sketch=0;pointerEvents=1;shadow=0;dashed=0;html=1;strokeColor=none;fillColor=#505050;labelPosition=center;verticalLabelPosition=bottom;verticalAlign=top;outlineConnect=0;align=center;shape=mxgraph.office.servers.windows_server;hachureGap=4;jiggle=2;curveFitting=1;fontFamily=Architects Daughter;fontSource=https%3A%2F%2Ffonts.googleapis.com%2Fcss%3Ffamily%3DArchitects%2BDaughter;" vertex="1" parent="1">
          <mxGeometry x="120" y="450" width="52" height="55" as="geometry" />
        </mxCell>
        <mxCell id="PuFVsdW1NZlVg10Oj2nZ-15" value="&lt;div&gt;win-ir01&lt;br&gt;&lt;br&gt;&lt;/div&gt;Self-Hosted &lt;br&gt;Integration Runtime" style="sketch=0;pointerEvents=1;shadow=0;dashed=0;html=1;strokeColor=none;fillColor=#505050;labelPosition=center;verticalLabelPosition=bottom;verticalAlign=top;outlineConnect=0;align=center;shape=mxgraph.office.servers.windows_server;hachureGap=4;jiggle=2;curveFitting=1;fontFamily=Architects Daughter;fontSource=https%3A%2F%2Ffonts.googleapis.com%2Fcss%3Ffamily%3DArchitects%2BDaughter;" vertex="1" parent="1">
          <mxGeometry x="280" y="450" width="52" height="55" as="geometry" />
        </mxCell>
      </root>
    </mxGraphModel>
  </diagram>
</mxfile>
